<svg xmlns="http://www.w3.org/2000/svg" version="1.1" xmlns:xlink="http://www.w3.org/1999/xlink" xmlns:svgjs="http://svgjs.dev/svgjs" width="63.23" height="64"><svg id="SvgjsSvg1010" xmlns="http://www.w3.org/2000/svg" viewBox="0 0 63.23 64"><defs><style>.cls-1{fill:#4788f5;}.cls-1,.cls-2,.cls-3{stroke-width:0px;}.cls-2{fill:#3f63ad;}.cls-3{fill:#fffffb;}</style></defs><path class="cls-1" d="m38.49.73c4.95,1.21,9.48,3.31,13.36,6.62,5.4,4.62,9,10.42,10.5,17.4,1.83,8.53.9,16.72-3.8,24.2-4.87,7.75-11.79,12.7-20.84,14.5-.03,0-.06,0-.09,0-.31-.13-.6-.11-.85.15-.09.01-.19.02-.28.03-.19-.02-.4-.08-.58-.05-1.85.32-3.72.34-5.59.32-.55,0-1.09-.23-1.64,0-3.72-.3-7.24-1.28-10.6-2.9C8.41,56.31,2.47,48.63.61,38.16-1.51,26.24,1.91,15.93,11.03,7.75c3.42-3.07,7.37-5.29,11.84-6.5.33.1.62.04.85-.23.06-.01.13-.02.19-.03.13.13.26.04.4.02,1.23-.22,2.45-.49,3.69-.65,1.26-.16,2.54-.21,3.81-.32.06,0,.13,0,.19,0,.17.02.34.07.5.07,1.24,0,2.47.12,3.69.27.77.1,1.51.44,2.31.36Zm-16.77,11.46c-.15.02-.16.14-.16.26,0,2.62,0,5.23,0,7.85,0,0-.08.18.07.07.03-.02.02-.08.03-.12.06.24.08.5.34.63,0,.02,0,.07,0,.07.07.01.14.02.21.02,6.25,0,12.51,0,18.76,0,.14,0,.3.05.38-.13.31-.16.24-.46.24-.71.01-2.5,0-5.01,0-7.51,0-.6-.26-.76-.79-.45-1.16.67-2.32,1.34-3.49,1.99-.78.44-1.39.25-1.87-.51-1.14-1.8-2.32-3.59-3.45-5.39-.29-.47-.45-.39-.71.01-.93,1.49-1.89,2.96-2.83,4.45-1.27,2.03-1.48,2.07-3.58.87-.96-.55-1.84-1.24-2.91-1.59-.03,0-.05,0-.08,0-.06.06-.12.12-.18.19Zm14.51,36.9c.02.08.03.16.05.25.02-.08.05-.17.05-.25,0-4.16,0-8.32,0-12.48,0-.38.24-.76.02-1.14.08-.64.29-1.23.6-1.79.94-1.73,2.85-2.63,4.69-2.22,1.61.36,2.87,1.89,2.94,3.57-.03.11-.07.22-.07.33,0,4.6,0,9.19,0,13.79,0,.14-.05.3.12.38.15.32.4.45.76.45,1.93-.01,3.87-.02,5.8,0,.44,0,.71-.14.87-.53.19-.4.08-.82.08-1.23.01-4.67,0-9.34,0-14,0-.08.11-.21-.07-.25,0,.04-.02.09-.02.13-.03-.27-.04-.54-.09-.81-1.38-6.99-7.03-9.68-12.97-8.8-3.01.44-5.24,2.21-7.02,4.6-.12.15-.19.37-.41.06-2.04-2.77-4.67-4.49-8.18-4.73-4.33-.3-7.95.95-10.41,4.73-1.08,1.66-1.59,3.51-1.72,5.47-.01-.08-.03-.17-.04-.25-.02.07-.05.13-.05.2,0,4.84,0,9.68,0,14.52,0,.12.06.24.09.36.14.42.42.54.86.54,1.81-.02,3.62-.05,5.43,0,.83.03,1.21-.22,1.1-1.06,0,0,.03-.02.03-.02,0-.02-.02-.04-.03-.06,0-.06,0-.12,0-.18.02-.12.07-.25.07-.37,0-4.27,0-8.54,0-12.8,0-.12-.05-.25-.07-.37.1-1.61.9-2.76,2.36-3.38,1.51-.64,2.97-.54,4.28.58,1.45,1.23,1.85,2.87,1.85,4.66,0,4.02,0,8.04,0,12.06,0,.36.04.69.36.91.06.04.12.07.17.11.03,0,.06.01.09.02.07.02.13.07.2.07,2.55,0,5.09,0,7.64,0,.12,0,.29.03.31-.17.3-.22.27-.57.35-.89Z"></path><path class="cls-2" d="m31.8.04c-1.27.1-2.55.15-3.81.32-1.24.16-2.46.42-3.69.65-.14.03-.27.12-.4-.02C26.5.33,29.12-.09,31.8.04Z"></path><path class="cls-2" d="m28.68,63.88c.55-.23,1.09,0,1.64,0,1.87.02,3.74,0,5.59-.32.19-.03.39.03.58.05-2.59.45-5.2.45-7.81.26Z"></path><path class="cls-2" d="m38.49.73c-.8.08-1.53-.27-2.31-.36-1.23-.15-2.46-.27-3.69-.27-.17,0-.34-.04-.5-.07,2.21-.14,4.37.17,6.5.69Z"></path><path class="cls-2" d="m36.77,63.59c.25-.26.54-.27.85-.15-.28.05-.57.1-.85.15Z"></path><path class="cls-2" d="m23.71,1.02c-.23.28-.52.33-.85.23.28-.08.57-.16.85-.23Z"></path><path class="cls-3" d="m27.73,50.09s-.06-.01-.09-.02c-.06-.04-.12-.07-.17-.11-.33-.22-.36-.55-.36-.91,0-4.02,0-8.04,0-12.06,0-1.79-.4-3.43-1.85-4.66-1.31-1.12-2.77-1.22-4.28-.58-1.46.62-2.26,1.78-2.36,3.38,0,4.52,0,9.03,0,13.55,0,.06,0,.12,0,.18,0,.03,0,.05,0,.08.1.84-.27,1.09-1.1,1.06-1.81-.06-3.62-.03-5.43,0-.44,0-.72-.12-.86-.54,0-4.94,0-9.89,0-14.83.13-1.96.64-3.81,1.72-5.47,2.46-3.78,6.08-5.03,10.41-4.73,3.51.24,6.14,1.96,8.18,4.73.23.31.3.09.41-.06,1.78-2.39,4.01-4.15,7.02-4.6,5.94-.88,11.59,1.81,12.97,8.8.05.27.06.54.09.81,0,5.12,0,10.24.01,15.36-.16.39-.44.54-.87.53-1.93-.02-3.87-.02-5.8,0-.36,0-.61-.12-.76-.45-.01-.24-.04-.49-.04-.73,0-4.59,0-9.18-.01-13.76-.07-1.68-1.33-3.21-2.94-3.57-1.84-.41-3.75.49-4.69,2.22-.3.56-.52,1.15-.6,1.79-.03.27-.09.54-.09.82-.01,4.27-.01,8.53-.02,12.8-.07.31-.05.66-.35.89-.16.02-.32.05-.47.05-2.56.02-5.12.04-7.68.05Z"></path><path class="cls-3" d="m22,20.87c-.26-.13-.28-.39-.34-.63,0-.16,0-.32,0-.48.02-2.52.04-5.05.05-7.57.06-.06.12-.12.18-.19,0,0,.04,0,.04,0h.04c1.07.33,1.95,1.03,2.91,1.58,2.1,1.19,2.3,1.15,3.58-.87.94-1.49,1.9-2.96,2.83-4.45.25-.4.41-.48.71-.01,1.13,1.81,2.31,3.59,3.45,5.39.48.76,1.09.94,1.87.51,1.17-.66,2.33-1.33,3.49-1.99.53-.31.79-.14.79.45,0,2.5,0,5.01,0,7.51,0,.25.07.56-.24.71-.11.01-.23.04-.34.04-6.34,0-12.68,0-19.02,0Z"></path><path class="cls-2" d="m22,20.87c6.34,0,12.68,0,19.02,0,.11,0,.23-.03.34-.04-.08.18-.24.13-.38.13-6.25,0-12.51,0-18.76,0-.07,0-.14,0-.21-.02,0,0,0-.05,0-.07Z"></path><path class="cls-2" d="m52.05,49.46c0-5.12,0-10.24-.01-15.36,0-.04.02-.09.02-.13.17.04.07.17.07.25,0,4.67,0,9.34,0,14,0,.41.11.83-.08,1.23Z"></path><path class="cls-2" d="m11.22,34.63c0,4.94,0,9.89,0,14.83-.03-.12-.09-.24-.09-.36,0-4.84,0-9.68,0-14.52,0-.07.03-.13.05-.2.01.08.03.17.04.25Z"></path><path class="cls-2" d="m44.57,35.04c0,4.59,0,9.18.01,13.76,0,.24.02.49.04.73-.17-.09-.12-.25-.12-.38,0-4.6,0-9.19,0-13.79,0-.11.05-.22.07-.33Z"></path><path class="cls-2" d="m36.23,49.09c0-4.27,0-8.53.02-12.8,0-.27.06-.54.09-.82.21.38-.03.76-.02,1.14.02,4.16.01,8.32,0,12.48,0,.08-.03.17-.05.25-.02-.08-.03-.16-.05-.25Z"></path><path class="cls-2" d="m18.61,48.68c0-4.52,0-9.03,0-13.55.02.12.07.25.07.37,0,4.27,0,8.54,0,12.8,0,.12-.05.25-.07.37Z"></path><path class="cls-2" d="m27.73,50.09c2.56-.02,5.12-.03,7.68-.05.16,0,.32-.04.47-.05-.02.21-.19.17-.31.17-2.55,0-5.09,0-7.64,0-.07,0-.13-.04-.2-.07Z"></path><path class="cls-2" d="m21.72,12.19c-.02,2.52-.04,5.05-.05,7.57,0,.16,0,.32,0,.48,0,.04,0,.1-.03.12-.14.11-.07-.06-.07-.07,0-2.62,0-5.23,0-7.85,0-.12.01-.24.16-.26Z"></path><path class="cls-2" d="m27.47,49.96c.06.04.12.07.17.11-.06-.04-.12-.07-.17-.11Z"></path><path class="cls-2" d="m21.98,11.99s-.04.01-.04.01c0,0-.04,0-.04,0,.03,0,.05,0,.08,0Z"></path><path class="cls-2" d="m18.61,48.94s-.01-.05,0-.08c0,.02.02.04.03.06,0,0-.02.02-.03.02Z"></path></svg><style>@media (prefers-color-scheme: light) { :root { filter: none; } }
@media (prefers-color-scheme: dark) { :root { filter: none; } }
</style></svg>