<?xml version="1.0" encoding="utf-8"?>
<!-- Generator: Adobe Illustrator 28.0.0, SVG Export Plug-In . SVG Version: 6.00 Build 0)  -->
<svg version="1.1" id="Layer_1" xmlns="http://www.w3.org/2000/svg" xmlns:xlink="http://www.w3.org/1999/xlink" x="0px" y="0px"
	 viewBox="0 0 64 64" style="enable-background:new 0 0 64 64;" xml:space="preserve">
<style type="text/css">
	.st0{fill:#4788F5;}
	.st1{fill:#3F63AD;}
	.st2{fill:#FFFFFB;}
</style>
<path class="st0" d="M38.9,0.7c5,1.2,9.5,3.3,13.4,6.6c5.4,4.6,9,10.4,10.5,17.4c1.8,8.5,0.9,16.7-3.8,24.2
	c-4.9,7.8-11.8,12.7-20.8,14.5c0,0-0.1,0-0.1,0c-0.3-0.1-0.6-0.1-0.8,0.2c-0.1,0-0.2,0-0.3,0c-0.2,0-0.4-0.1-0.6,0
	c-1.8,0.3-3.7,0.3-5.6,0.3c-0.5,0-1.1-0.2-1.6,0c-3.7-0.3-7.2-1.3-10.6-2.9C8.8,56.3,2.9,48.6,1,38.2C-1.1,26.2,2.3,15.9,11.4,7.8
	c3.4-3.1,7.4-5.3,11.8-6.5c0.3,0.1,0.6,0,0.9-0.2c0.1,0,0.1,0,0.2,0c0.1,0.1,0.3,0,0.4,0c1.2-0.2,2.5-0.5,3.7-0.6
	c1.3-0.2,2.5-0.2,3.8-0.3c0.1,0,0.1,0,0.2,0c0.2,0,0.3,0.1,0.5,0.1c1.2,0,2.5,0.1,3.7,0.3C37.3,0.5,38.1,0.8,38.9,0.7L38.9,0.7z
	 M22.1,12.2c-0.1,0-0.2,0.1-0.2,0.3c0,2.6,0,5.2,0,7.9c0,0-0.1,0.2,0.1,0.1c0,0,0-0.1,0-0.1c0.1,0.2,0.1,0.5,0.3,0.6
	c0,0,0,0.1,0,0.1c0.1,0,0.1,0,0.2,0c6.2,0,12.5,0,18.8,0c0.1,0,0.3,0,0.4-0.1c0.3-0.2,0.2-0.5,0.2-0.7c0-2.5,0-5,0-7.5
	c0-0.6-0.3-0.8-0.8-0.4c-1.2,0.7-2.3,1.3-3.5,2c-0.8,0.4-1.4,0.2-1.9-0.5c-1.1-1.8-2.3-3.6-3.5-5.4c-0.3-0.5-0.4-0.4-0.7,0
	c-0.9,1.5-1.9,3-2.8,4.4c-1.3,2-1.5,2.1-3.6,0.9c-1-0.6-1.8-1.2-2.9-1.6c0,0,0,0-0.1,0C22.2,12.1,22.1,12.1,22.1,12.2L22.1,12.2z
	 M36.6,49.1c0,0.1,0,0.2,0,0.2C36.7,49.3,36.7,49.2,36.6,49.1c0.1-4.2,0.1-8.3,0.1-12.5c0-0.4,0.2-0.8,0-1.1
	c0.1-0.6,0.3-1.2,0.6-1.8c0.9-1.7,2.8-2.6,4.7-2.2c1.6,0.4,2.9,1.9,2.9,3.6c0,0.1-0.1,0.2-0.1,0.3c0,4.6,0,9.2,0,13.8
	c0,0.1,0,0.3,0.1,0.4c0.2,0.3,0.4,0.5,0.8,0.5c1.9,0,3.9,0,5.8,0c0.4,0,0.7-0.1,0.9-0.5c0.2-0.4,0.1-0.8,0.1-1.2c0-4.7,0-9.3,0-14
	c0-0.1,0.1-0.2-0.1-0.2c0,0,0,0.1,0,0.1c0-0.3,0-0.5-0.1-0.8c-1.4-7-7-9.7-13-8.8c-3,0.4-5.2,2.2-7,4.6c-0.1,0.1-0.2,0.4-0.4,0.1
	c-2-2.8-4.7-4.5-8.2-4.7c-4.3-0.3-7.9,1-10.4,4.7c-1.1,1.7-1.6,3.5-1.7,5.5c0-0.1,0-0.2,0-0.2c0,0.1-0.1,0.1-0.1,0.2
	c0,4.8,0,9.7,0,14.5c0,0.1,0.1,0.2,0.1,0.4c0.1,0.4,0.4,0.5,0.9,0.5c1.8,0,3.6,0,5.4,0c0.8,0,1.2-0.2,1.1-1.1l0,0c0,0,0,0,0-0.1
	c0-0.1,0-0.1,0-0.2c0-0.1,0.1-0.2,0.1-0.4c0-4.3,0-8.5,0-12.8c0-0.1,0-0.2-0.1-0.4c0.1-1.6,0.9-2.8,2.4-3.4c1.5-0.6,3-0.5,4.3,0.6
	c1.5,1.2,1.9,2.9,1.9,4.7c0,4,0,8,0,12.1c0,0.4,0,0.7,0.4,0.9c0.1,0,0.1,0.1,0.2,0.1c0,0,0.1,0,0.1,0c0.1,0,0.1,0.1,0.2,0.1
	c2.5,0,5.1,0,7.6,0c0.1,0,0.3,0,0.3-0.2C36.6,49.8,36.6,49.4,36.6,49.1L36.6,49.1z"/>
<path class="st1" d="M32.2,0c-1.3,0.1-2.5,0.2-3.8,0.3c-1.2,0.2-2.5,0.4-3.7,0.6c-0.1,0-0.3,0.1-0.4,0C26.9,0.3,29.5-0.1,32.2,0z"/>
<path class="st1" d="M29.1,63.9c0.5-0.2,1.1,0,1.6,0c1.9,0,3.7,0,5.6-0.3c0.2,0,0.4,0,0.6,0C34.3,64.1,31.7,64.1,29.1,63.9
	L29.1,63.9z"/>
<path class="st1" d="M38.9,0.7c-0.8,0.1-1.5-0.3-2.3-0.4c-1.2-0.2-2.5-0.3-3.7-0.3c-0.2,0-0.3,0-0.5-0.1C34.6-0.1,36.7,0.2,38.9,0.7
	L38.9,0.7z"/>
<path class="st1" d="M37.2,63.6c0.2-0.3,0.5-0.3,0.8-0.2C37.7,63.5,37.4,63.5,37.2,63.6z"/>
<path class="st1" d="M24.1,1c-0.2,0.3-0.5,0.3-0.9,0.2C23.5,1.2,23.8,1.1,24.1,1z"/>
<path class="st2" d="M28.1,50.1C28.1,50.1,28.1,50.1,28.1,50.1C28,50,27.9,50,27.9,50c-0.3-0.2-0.4-0.5-0.4-0.9c0-4,0-8,0-12.1
	c0-1.8-0.4-3.4-1.9-4.7c-1.3-1.1-2.8-1.2-4.3-0.6c-1.5,0.6-2.3,1.8-2.4,3.4c0,4.5,0,9,0,13.5c0,0.1,0,0.1,0,0.2c0,0,0,0,0,0.1
	c0.1,0.8-0.3,1.1-1.1,1.1c-1.8-0.1-3.6,0-5.4,0c-0.4,0-0.7-0.1-0.9-0.5c0-4.9,0-9.9,0-14.8c0.1-2,0.6-3.8,1.7-5.5
	c2.5-3.8,6.1-5,10.4-4.7c3.5,0.2,6.1,2,8.2,4.7c0.2,0.3,0.3,0.1,0.4-0.1c1.8-2.4,4-4.1,7-4.6c5.9-0.9,11.6,1.8,13,8.8
	c0.1,0.3,0.1,0.5,0.1,0.8c0,5.1,0,10.2,0,15.4C52.3,49.9,52,50,51.6,50c-1.9,0-3.9,0-5.8,0c-0.4,0-0.6-0.1-0.8-0.5
	c0-0.2,0-0.5,0-0.7c0-4.6,0-9.2,0-13.8c-0.1-1.7-1.3-3.2-2.9-3.6c-1.8-0.4-3.8,0.5-4.7,2.2c-0.3,0.6-0.5,1.2-0.6,1.8
	c0,0.3-0.1,0.5-0.1,0.8c0,4.3,0,8.5,0,12.8c-0.1,0.3,0,0.7-0.3,0.9c-0.2,0-0.3,0-0.5,0C33.2,50.1,30.7,50.1,28.1,50.1L28.1,50.1z"/>
<path class="st2" d="M22.4,20.9c-0.3-0.1-0.3-0.4-0.3-0.6c0-0.2,0-0.3,0-0.5c0-2.5,0-5.1,0-7.6c0.1-0.1,0.1-0.1,0.2-0.2h0h0
	c1.1,0.3,2,1,2.9,1.6c2.1,1.2,2.3,1.1,3.6-0.9c0.9-1.5,1.9-3,2.8-4.4c0.2-0.4,0.4-0.5,0.7,0c1.1,1.8,2.3,3.6,3.4,5.4
	c0.5,0.8,1.1,0.9,1.9,0.5c1.2-0.7,2.3-1.3,3.5-2c0.5-0.3,0.8-0.1,0.8,0.4c0,2.5,0,5,0,7.5c0,0.2,0.1,0.6-0.2,0.7c-0.1,0-0.2,0-0.3,0
	C35.1,20.9,28.7,20.9,22.4,20.9z"/>
<path class="st1" d="M22.4,20.9c6.3,0,12.7,0,19,0c0.1,0,0.2,0,0.3,0C41.7,21,41.5,21,41.4,21c-6.2,0-12.5,0-18.8,0
	C22.5,21,22.5,21,22.4,20.9C22.4,20.9,22.4,20.9,22.4,20.9L22.4,20.9z"/>
<path class="st1" d="M52.4,49.5c0-5.1,0-10.2,0-15.4c0,0,0-0.1,0-0.1c0.2,0,0.1,0.2,0.1,0.2c0,4.7,0,9.3,0,14
	C52.5,48.6,52.6,49,52.4,49.5L52.4,49.5z"/>
<path class="st1" d="M11.6,34.6c0,4.9,0,9.9,0,14.8c0-0.1-0.1-0.2-0.1-0.4C11.5,44.3,11.5,39.4,11.6,34.6c-0.1-0.1-0.1-0.2,0-0.3
	C11.6,34.5,11.6,34.5,11.6,34.6z"/>
<path class="st1" d="M45,35c0,4.6,0,9.2,0,13.8c0,0.2,0,0.5,0,0.7c-0.2-0.1-0.1-0.2-0.1-0.4c0-4.6,0-9.2,0-13.8
	C44.9,35.2,44.9,35.1,45,35L45,35z"/>
<path class="st1" d="M36.6,49.1c0-4.3,0-8.5,0-12.8c0-0.3,0.1-0.5,0.1-0.8c0.2,0.4,0,0.8,0,1.1C36.7,40.8,36.7,44.9,36.6,49.1
	c0.1,0.1,0.1,0.2,0,0.2C36.6,49.3,36.6,49.2,36.6,49.1L36.6,49.1z"/>
<path class="st1" d="M19,48.7c0-4.5,0-9,0-13.5c0,0.1,0.1,0.2,0.1,0.4c0,4.3,0,8.5,0,12.8C19.1,48.4,19,48.5,19,48.7L19,48.7z"/>
<path class="st1" d="M28.1,50.1c2.6,0,5.1,0,7.7,0c0.2,0,0.3,0,0.5,0c0,0.2-0.2,0.2-0.3,0.2c-2.6,0-5.1,0-7.6,0
	C28.2,50.2,28.2,50.1,28.1,50.1z"/>
<path class="st1" d="M22.1,12.2c0,2.5,0,5.1,0,7.6c0,0.2,0,0.3,0,0.5c0,0,0,0.1,0,0.1c-0.1,0.1-0.1-0.1-0.1-0.1c0-2.6,0-5.2,0-7.9
	C22,12.3,22,12.2,22.1,12.2L22.1,12.2z"/>
<path class="st1" d="M27.9,50c0.1,0,0.1,0.1,0.2,0.1C28,50,27.9,50,27.9,50z"/>
<path class="st1" d="M22.4,12L22.4,12L22.4,12C22.3,12,22.3,12,22.4,12L22.4,12z"/>
<path class="st1" d="M19,48.9C19,48.9,19,48.9,19,48.9C19,48.9,19,48.9,19,48.9C19,48.9,19,48.9,19,48.9z"/>
</svg>
