<?xml version="1.0" encoding="UTF-8"?><svg id="Layer_2" xmlns="http://www.w3.org/2000/svg" viewBox="0 0 802.06 228.25"><defs><style>.cls-1{fill:#313032;font-family:Raleway-Bold, Raleway;font-size:95.35px;font-weight:700;}.cls-2{letter-spacing:0em;}.cls-3{letter-spacing:-.02em;}.cls-4{fill:#4788f5;}.cls-4,.cls-5,.cls-6{stroke-width:0px;}.cls-5{fill:#3f63ad;}.cls-6{fill:#fffffb;}.cls-7{letter-spacing:0em;}</style></defs><g id="Layer_1-2"><path class="cls-4" d="m137.28,2.6c17.65,4.31,33.81,11.79,47.63,23.61,19.27,16.49,32.09,37.15,37.44,62.04,6.54,30.43,3.22,59.63-13.54,86.3-17.36,27.63-42.04,45.28-74.33,51.72-.1.02-.2-.02-.31-.03-1.12-.46-2.15-.4-3.03.52-.33.04-.66.08-.99.11-.69-.07-1.42-.3-2.08-.19-6.6,1.13-13.26,1.21-19.93,1.14-1.95-.02-3.89-.84-5.85-.03-13.25-1.07-25.83-4.58-37.8-10.35C30.01,200.83,8.81,173.42,2.17,136.09-5.4,93.59,6.81,56.81,39.32,27.66c12.19-10.94,26.27-18.87,42.21-23.2,1.18.35,2.22.16,3.03-.83.23-.04.45-.08.68-.12.46.47.94.15,1.44.06,4.38-.8,8.74-1.75,13.15-2.32,4.5-.58,9.05-.77,13.58-1.12.22,0,.45,0,.67,0,.6.08,1.2.24,1.79.24,4.42-.02,8.8.41,13.18.95,2.76.34,5.37,1.57,8.23,1.29Zm-59.82,40.87c-.55.08-.59.49-.59.92,0,9.33,0,18.66.02,27.99,0,.03-.27.63.23.24.09-.07.08-.29.11-.44.22.85.28,1.79,1.22,2.25.01.09,0,.25.03.25.25.04.5.07.75.07,22.31,0,44.61,0,66.92,0,.49,0,1.07.17,1.35-.46,1.11-.57.85-1.65.85-2.55.04-8.93.03-17.85.02-26.78,0-2.13-.93-2.71-2.83-1.62-4.14,2.38-8.28,4.77-12.45,7.11-2.77,1.55-4.95.9-6.66-1.8-4.07-6.43-8.27-12.79-12.31-19.24-1.05-1.67-1.61-1.41-2.52.04-3.33,5.31-6.75,10.57-10.09,15.88-4.54,7.23-5.27,7.37-12.75,3.11-3.42-1.94-6.55-4.44-10.36-5.67-.09.01-.18.02-.27.04-.22.22-.44.44-.66.66Zm51.74,131.61c.06.29.12.59.17.88.06-.29.17-.59.17-.88,0-14.83.03-29.66-.03-44.49,0-1.36.85-2.7.09-4.06.27-2.27,1.04-4.37,2.12-6.37,3.36-6.17,10.15-9.38,16.72-7.9,5.75,1.29,10.24,6.73,10.5,12.72-.09.39-.26.78-.26,1.17-.01,16.39-.01,32.79,0,49.18,0,.49-.18,1.06.44,1.36.53,1.16,1.41,1.6,2.7,1.59,6.9-.04,13.8-.06,20.7.02,1.55.02,2.55-.49,3.11-1.9.69-1.42.29-2.93.29-4.39.04-16.65.03-33.29,0-49.94,0-.27.38-.75-.25-.89-.03.15-.06.3-.09.46-.11-.96-.14-1.94-.33-2.89-4.91-24.93-25.08-34.52-46.25-31.4-10.73,1.58-18.7,7.86-25.05,16.39-.41.55-.67,1.33-1.48.23-7.26-9.87-16.65-16.02-29.17-16.87-15.45-1.05-28.35,3.38-37.14,16.88-3.86,5.92-5.68,12.51-6.15,19.52-.05-.3-.11-.59-.16-.89-.06.24-.18.48-.18.72,0,17.26,0,34.52,0,51.78,0,.42.22.85.34,1.27.49,1.48,1.5,1.94,3.06,1.92,6.45-.08,12.91-.19,19.36.02,2.96.1,4.3-.78,3.93-3.79.03-.03.1-.07.09-.08-.02-.07-.06-.13-.1-.2,0-.21,0-.43,0-.64.09-.44.26-.88.26-1.32.01-15.22.01-30.44,0-45.66,0-.44-.16-.88-.25-1.33.37-5.72,3.21-9.85,8.43-12.07,5.39-2.29,10.58-1.93,15.27,2.06,5.16,4.4,6.59,10.22,6.6,16.61.03,14.34.02,28.67,0,43.01,0,1.3.13,2.47,1.3,3.26.21.13.41.27.62.4.1.02.2.04.31.06.24.08.47.23.71.24,9.08.01,18.16.02,27.25,0,.44,0,1.04.11,1.1-.62,1.07-.79.98-2.05,1.24-3.16Z"/><path class="cls-5" d="m113.41.13c-4.53.36-9.08.55-13.58,1.12-4.41.56-8.77,1.51-13.15,2.32-.5.09-.97.41-1.44-.06C94.49,1.17,103.83-.32,113.41.13Z"/><path class="cls-5" d="m102.3,227.8c1.96-.81,3.9,0,5.85.03,6.67.08,13.33,0,19.93-1.14.66-.11,1.38.12,2.08.19-9.24,1.61-18.54,1.62-27.85.92Z"/><path class="cls-5" d="m137.28,2.6c-2.85.28-5.47-.95-8.23-1.29-4.38-.54-8.76-.98-13.18-.95-.6,0-1.19-.15-1.79-.24,7.87-.52,15.58.6,23.2,2.48Z"/><path class="cls-5" d="m131.15,226.77c.88-.92,1.91-.98,3.03-.52-1.01.17-2.02.35-3.03.52Z"/><path class="cls-5" d="m84.57,3.63c-.82.99-1.85,1.18-3.03.83,1.01-.28,2.02-.55,3.03-.83Z"/><path class="cls-6" d="m98.9,178.63c-.1-.02-.2-.04-.31-.06-.21-.13-.41-.27-.62-.4-1.17-.8-1.3-1.97-1.3-3.26.02-14.34.02-28.67,0-43.01-.01-6.39-1.44-12.22-6.6-16.61-4.69-3.99-9.87-4.35-15.27-2.06-5.22,2.22-8.05,6.35-8.43,12.07,0,16.1,0,32.21,0,48.31,0,.21,0,.43,0,.64-.04.1-.03.19,0,.29.37,3.01-.97,3.89-3.93,3.79-6.45-.21-12.9-.11-19.36-.02-1.56.02-2.57-.43-3.06-1.92,0-17.63,0-35.26,0-52.89.46-7.01,2.29-13.6,6.15-19.52,8.79-13.49,21.69-17.93,37.14-16.88,12.52.85,21.91,7.01,29.17,16.87.81,1.1,1.07.32,1.48-.23,6.35-8.53,14.31-14.81,25.05-16.39,21.17-3.13,41.34,6.47,46.25,31.4.19.95.22,1.93.33,2.89.01,18.25.02,36.51.04,54.76-.57,1.41-1.56,1.92-3.11,1.9-6.9-.08-13.8-.06-20.7-.02-1.29,0-2.17-.43-2.7-1.59-.05-.87-.13-1.75-.13-2.62-.02-16.36-.03-32.73-.05-49.09-.26-6-4.75-11.43-10.5-12.72-6.58-1.48-13.37,1.73-16.72,7.9-1.09,2-1.85,4.1-2.12,6.37-.12.97-.34,1.94-.34,2.91-.04,15.22-.04,30.43-.06,45.65-.27,1.11-.17,2.36-1.24,3.16-.56.07-1.12.19-1.69.19-9.13.07-18.25.13-27.38.19Z"/><path class="cls-6" d="m78.45,74.43c-.93-.47-1-1.4-1.22-2.25.01-.57.03-1.13.04-1.7.06-9,.13-18.01.19-27.01.22-.22.44-.44.66-.66,0,0,.14,0,.14,0l.13-.04c3.81,1.23,6.94,3.72,10.36,5.67,7.48,4.25,8.21,4.11,12.75-3.11,3.34-5.31,6.76-10.57,10.09-15.88.91-1.44,1.47-1.71,2.52-.04,4.04,6.45,8.24,12.81,12.31,19.24,1.72,2.71,3.89,3.36,6.66,1.8,4.17-2.34,8.31-4.73,12.45-7.11,1.9-1.09,2.83-.51,2.83,1.62,0,8.93.01,17.85-.02,26.78,0,.9.26,1.98-.85,2.55-.41.05-.81.15-1.22.15-22.61,0-45.22,0-67.84,0Z"/><path class="cls-5" d="m78.45,74.43c22.61,0,45.22.01,67.84,0,.41,0,.81-.1,1.22-.15-.29.63-.86.46-1.35.46-22.31,0-44.61,0-66.92,0-.25,0-.5-.03-.75-.07-.02,0-.02-.16-.03-.25Z"/><path class="cls-5" d="m185.64,176.4c-.01-18.25-.02-36.51-.04-54.76.03-.15.06-.3.09-.45.62.14.25.61.25.89.02,16.65.03,33.29,0,49.94,0,1.46.4,2.97-.29,4.39Z"/><path class="cls-5" d="m40.03,123.5c0,17.63,0,35.26,0,52.89-.12-.42-.33-.85-.34-1.27-.02-17.26-.02-34.52,0-51.78,0-.24.12-.48.18-.72.05.3.11.59.16.89Z"/><path class="cls-5" d="m158.95,124.98c.01,16.36.03,32.73.05,49.09,0,.87.08,1.75.13,2.62-.61-.3-.44-.88-.44-1.37,0-16.39-.01-32.79,0-49.18,0-.39.17-.78.26-1.17Z"/><path class="cls-5" d="m129.2,175.09c.01-15.22.02-30.43.06-45.65,0-.97.22-1.94.34-2.91.76,1.36-.09,2.7-.09,4.06.06,14.83.04,29.66.03,44.49,0,.29-.11.59-.17.88-.06-.29-.12-.59-.17-.88Z"/><path class="cls-5" d="m66.38,173.6c0-16.1,0-32.21,0-48.31.09.44.25.88.25,1.33.01,15.22.01,30.44,0,45.66,0,.44-.17.88-.26,1.32Z"/><path class="cls-5" d="m98.9,178.63c9.13-.06,18.25-.12,27.38-.19.56,0,1.13-.13,1.69-.19-.07.74-.66.62-1.1.62-9.08.01-18.16,0-27.25,0-.24,0-.47-.15-.71-.24Z"/><path class="cls-5" d="m77.46,43.47c-.06,9-.13,18.01-.19,27.01,0,.57-.02,1.13-.04,1.7-.03.15-.02.37-.11.44-.5.4-.23-.2-.23-.24-.02-9.33-.01-18.66-.02-27.99,0-.44.04-.84.59-.92Z"/><path class="cls-5" d="m97.97,178.17c.21.13.41.27.62.4-.21-.13-.41-.27-.62-.4Z"/><path class="cls-5" d="m78.4,42.78s-.13.04-.13.04c0,0-.14,0-.14,0,.09-.01.18-.02.27-.04Z"/><path class="cls-5" d="m66.38,174.53c-.04-.09-.04-.19,0-.29.03.07.08.13.1.2,0,.02-.06.06-.09.08Z"/><text class="cls-1" transform="translate(256.87 93.06)"><tspan class="cls-2" x="0" y="0">M</tspan><tspan class="cls-7" x="81.62" y="0">ejo</tspan><tspan class="cls-3" x="221.4" y="0">r</tspan><tspan x="256.2" y="0" xml:space="preserve"> Curso</tspan><tspan x="0" y="97.51">de Inglés</tspan></text></g></svg>